<svg width="33" height="36" viewBox="0 0 33 36" fill="none" xmlns="http://www.w3.org/2000/svg">
<path fill-rule="evenodd" clip-rule="evenodd" d="M23.7739 0.93934C23.4926 0.658035 23.111 0.5 22.7132 0.5C22.3154 0.5 21.9338 0.658035 21.6525 0.93934L3.26776 19.3241C3.07931 19.5126 2.94447 19.7478 2.87711 20.0057L0.877113 27.6625C0.742532 28.1778 0.891211 28.7257 1.26776 29.1023C1.64431 29.4788 2.19227 29.6275 2.70751 29.4929L10.3644 27.4929C10.6222 27.4256 10.8575 27.2907 11.0459 27.1023L29.4307 8.71751C30.0165 8.13173 30.0165 7.18198 29.4307 6.59619L23.7739 0.93934ZM5.67687 21.1576L22.7132 4.12132L26.2487 7.65685L9.2124 24.6932L4.42687 25.9432L5.67687 21.1576Z" fill="#FF9C06"/>
<path d="M1.5 32.5C0.671573 32.5 0 33.1716 0 34C0 34.8284 0.671573 35.5 1.5 35.5H31.5C32.3284 35.5 33 34.8284 33 34C33 33.1716 32.3284 32.5 31.5 32.5H1.5Z" fill="#FF9C06"/>
</svg>
