<svg width="39" height="30" viewBox="0 0 39 30" fill="none" xmlns="http://www.w3.org/2000/svg">
<path d="M0 10.0596C0 4.6586 4.73829 0.5 10.3 0.5C13.1669 0.5 15.6897 1.84428 17.5 3.58367C19.3103 1.84428 21.8331 0.5 24.7 0.5C30.2617 0.5 35 4.6586 35 10.0596C35 10.3843 34.9878 10.7057 34.9642 11.0235C34.9416 11.3273 34.6837 11.5555 34.3791 11.5555H32.5845C32.2174 11.5555 31.9378 11.2287 31.9674 10.8628C31.989 10.5969 32 10.3291 32 10.0596C32 6.5582 28.8585 3.5 24.7 3.5C22.3117 3.5 20.0816 4.92684 18.6891 6.73784C18.4052 7.10712 17.9658 7.32353 17.5 7.32353C17.0342 7.32353 16.5948 7.10712 16.3109 6.73784C14.9184 4.92684 12.6883 3.5 10.3 3.5C6.1415 3.5 3 6.5582 3 10.0596C3 12.8666 4.19158 15.48 6.11218 17.8964C8.03657 20.3176 10.6258 22.4538 13.2415 24.2659C14.2312 24.9516 15.1635 25.535 15.9609 25.9411C16.8173 26.3773 17.3133 26.5 17.5 26.5C17.6867 26.5 18.1827 26.3773 19.0391 25.9411C19.8365 25.535 20.7688 24.9516 21.7585 24.2659C22.6105 23.6757 23.4596 23.0511 24.2839 22.3934C24.575 22.1613 25.0064 22.2393 25.1914 22.5624L26.0947 24.139C26.2412 24.3948 26.1806 24.7194 25.9491 24.9018C25.1252 25.5511 24.2906 26.1614 23.4669 26.7319C22.4231 27.4551 21.367 28.1222 20.4005 28.6144C19.493 29.0766 18.4495 29.5 17.5 29.5C16.5505 29.5 15.507 29.0766 14.5995 28.6144C13.633 28.1222 12.5769 27.4551 11.5331 26.7319C8.8001 24.8386 5.94574 22.5085 3.76364 19.7631C1.57776 17.0129 0 13.7593 0 10.0596Z" fill="#09DDD0"/>
<path d="M25.1136 9.37502C24.8984 8.90544 24.4567 8.57964 23.9445 8.51267C23.4323 8.44569 22.9217 8.64698 22.5929 9.04543L18.4596 14.0556H15.5C14.6716 14.0556 14 14.7271 14 15.5556C14 16.384 14.6716 17.0556 15.5 17.0556H19.1667C19.6144 17.0556 20.0388 16.8555 20.3237 16.5101L23.3837 12.801L26.9697 20.625C27.185 21.0946 27.6267 21.4204 28.1389 21.4873C28.6511 21.5543 29.1617 21.353 29.4904 20.9546L32.7071 17.0556H37.5C38.3284 17.0556 39 16.384 39 15.5556C39 14.7271 38.3284 14.0556 37.5 14.0556H32C31.5522 14.0556 31.1279 14.2556 30.8429 14.601L28.6996 17.199L25.1136 9.37502Z" fill="#09DDD0"/>
</svg>
