<svg width="49" height="48" viewBox="0 0 49 48" fill="none" xmlns="http://www.w3.org/2000/svg">
<path d="M20.5 4.5C19.6716 4.5 19 5.17157 19 6V7.5H10.5C9.67157 7.5 9 8.17157 9 9C9 9.82843 9.67157 10.5 10.5 10.5H38.5C39.3284 10.5 40 9.82843 40 9C40 8.17157 39.3284 7.5 38.5 7.5H30V6C30 5.17157 29.3284 4.5 28.5 4.5H20.5Z" fill="#EF0202"/>
<path d="M20.5 21.3C21.3284 21.3 22 21.9716 22 22.8L22 36.8C22 37.6284 21.3284 38.3 20.5 38.3C19.6716 38.3 19 37.6284 19 36.8L19 22.8C19 21.9716 19.6716 21.3 20.5 21.3Z" fill="#EF0202"/>
<path d="M30 22.8C30 21.9716 29.3284 21.3 28.5 21.3C27.6716 21.3 27 21.9716 27 22.8V36.8C27 37.6284 27.6716 38.3 28.5 38.3C29.3284 38.3 30 37.6284 30 36.8V22.8Z" fill="#EF0202"/>
<path fill-rule="evenodd" clip-rule="evenodd" d="M12.4828 15.8344C12.5673 15.0747 13.2094 14.5 13.9737 14.5H35.0263C35.7906 14.5 36.4327 15.0747 36.5171 15.8344L36.9174 19.437C37.6431 25.9677 37.6431 32.5586 36.9174 39.0893L36.878 39.4439C36.59 42.0363 34.5809 44.1033 31.9978 44.4649C27.0235 45.1613 21.9765 45.1613 17.0022 44.4649C14.4191 44.1033 12.41 42.0362 12.122 39.4439L12.0826 39.0893C11.3569 32.5586 11.3569 25.9677 12.0826 19.437L12.4828 15.8344ZM15.3162 17.5L15.0642 19.7683C14.363 26.0788 14.363 32.4475 15.0642 38.758L15.1036 39.1126C15.2402 40.3421 16.193 41.3224 17.4181 41.4939C22.1164 42.1517 26.8835 42.1517 31.5819 41.4939C32.8069 41.3224 33.7598 40.3421 33.8964 39.1126L33.9358 38.758C34.6369 32.4475 34.6369 26.0788 33.9358 19.7683L33.6837 17.5H15.3162Z" fill="#EF0202"/>
</svg>
